<svg xmlns="http://www.w3.org/2000/svg" width="186.16" height="46.08" viewBox="0 0 186.16 46.08">
  <defs>
    <style>
      .a {
        fill: #0c63dc;
      }
    </style>
  </defs>
  <title>logo</title>
  <g>
    <path class="a" d="M16.85,8.64C27,8.64,32,16.06,32,25.78a21,21,0,0,1-.43,4.46H10.22c.94,5.4,4.54,7.91,9.29,7.78A151.43,151.43,0,0,0,36.73,36.5l-2.09,3c.57-.18-3.91,2.74-7.49,5.16-1.84,1.24-8.7,1.4-9.08,1.4C7.85,46.08,0,39.17,0,27.36,0,15.77,8.28,8.64,16.85,8.64Zm6.19,15c0-4.1-1.73-7-6-7-3.31,0-6.19,2.23-6.91,7Z"/>
    <path class="a" d="M34.64,39.53l15-21.75H36.3V9.5h26.5v5.62l-15,21.82H63.3v8.28H34.64Z"/>
    <path class="a" d="M69.34,17.79l-6.55-2.66V9.5h7.13L71.14,0h8.78V9.5H88.5v8.28H79.93V32.11c0,4,1.8,5.69,4.61,5.69,3.87,0,9.15-2.81,10.09-3.17l1.66,7.71c-1.87.58-5.2,3.75-14.63,3.75-8.86,0-12.31-5.54-12.31-13.83Z"/>
    <path class="a" d="M131.41,17.79l-6.55-2.66V9.5H132L133.21,0H142V9.5h8.57v8.28H142V32.11c0,4,1.8,5.69,4.61,5.69,3.87,0,9.15-2.81,10.09-3.17l1.66,7.71c-1.87.58-5.2,3.75-14.63,3.75-8.86,0-12.31-5.54-12.31-13.83Z"/>
    <path class="a" d="M106.14,8.64c3.6,0,6.48,1.37,9.29,4.39h.29l.86-3.53h8.28V45.22h-8.64l-.72-3.53h-.29a14.13,14.13,0,0,1-9.5,4.39c-8.86,0-14.62-7.06-14.62-18.72S98.65,8.64,106.14,8.64Zm2.3,28.8c2.3,0,4.1-.86,5.83-3.24V19.59a8.46,8.46,0,0,0-5.9-2.3c-3.38,0-6.41,3.17-6.41,9.94C102,34.27,104.34,37.44,108.44,37.44Z"/>
    <path class="a" d="M168.81,8.64c9,0,17.35,6.84,17.35,18.72s-8.35,18.72-17.35,18.72-17.43-6.84-17.43-18.72S159.73,8.64,168.81,8.64Zm0,28.87c4.32,0,6.55-4,6.55-10.15s-2.23-10.15-6.55-10.15-6.55,4-6.55,10.15S164.42,37.51,168.81,37.51Z"/>
  </g>
</svg>
