<svg xmlns="http://www.w3.org/2000/svg" width="191.04" height="68.8" viewBox="0 0 191.04 68.8">
  <defs>
    <style>
      .a {
        fill: #0c63dc;
      }

      .b {
        font-size: 16px;
        fill: #4d4d4d;
        font-family: SourceSansPro-Light, Source Sans Pro;
      }

      .c {
        letter-spacing: -0.01em;
      }

      .d {
        letter-spacing: 0.01em;
      }

      .e {
        letter-spacing: 0em;
      }

      .f {
        letter-spacing: 0.01em;
      }
    </style>
  </defs>
  <title>logo-slogan</title>
  <g>
    <g>
      <path class="a" d="M17.44,8.64c10.15,0,15.19,7.42,15.19,17.14a21,21,0,0,1-.43,4.46H10.82c.94,5.4,4.54,7.91,9.29,7.78A151.43,151.43,0,0,0,37.32,36.5l-2.09,3c.57-.18-3.91,2.74-7.49,5.16-1.84,1.24-8.7,1.4-9.08,1.4C8.44,46.08.59,39.17.59,27.36.59,15.77,8.87,8.64,17.44,8.64Zm6.19,15c0-4.1-1.73-7-6-7-3.31,0-6.19,2.23-6.91,7Z"/>
      <path class="a" d="M35.23,39.53l15-21.75H36.89V9.5h26.5v5.62l-15,21.82H63.89v8.28H35.23Z"/>
      <path class="a" d="M69.94,17.79l-6.55-2.66V9.5h7.13L71.74,0h8.78V9.5h8.57v8.28H80.52V32.11c0,4,1.8,5.69,4.61,5.69,3.87,0,9.15-2.81,10.09-3.17l1.66,7.71c-1.87.58-5.2,3.75-14.63,3.75-8.86,0-12.31-5.54-12.31-13.83Z"/>
      <path class="a" d="M132,17.79l-6.55-2.66V9.5h7.13L133.8,0h8.78V9.5h8.57v8.28h-8.57V32.11c0,4,1.8,5.69,4.61,5.69,3.87,0,9.15-2.81,10.09-3.17l1.66,7.71c-1.87.58-5.2,3.75-14.63,3.75-8.86,0-12.31-5.54-12.31-13.83Z"/>
      <path class="a" d="M106.73,8.64c3.6,0,6.48,1.37,9.29,4.39h.29l.86-3.53h8.28V45.22h-8.64l-.72-3.53h-.29a14.13,14.13,0,0,1-9.5,4.39c-8.86,0-14.62-7.06-14.62-18.72S99.24,8.64,106.73,8.64Zm2.3,28.8c2.3,0,4.1-.86,5.83-3.24V19.59a8.46,8.46,0,0,0-5.9-2.3c-3.38,0-6.41,3.17-6.41,9.94C102.55,34.27,104.93,37.44,109,37.44Z"/>
      <path class="a" d="M169.4,8.64c9,0,17.35,6.84,17.35,18.72S178.4,46.08,169.4,46.08,152,39.24,152,27.36,160.33,8.64,169.4,8.64Zm0,28.87c4.32,0,6.55-4,6.55-10.15s-2.23-10.15-6.55-10.15-6.55,4-6.55,10.15S165,37.51,169.4,37.51Z"/>
    </g>
    <text class="b" transform="translate(0 64.21)"><tspan class="c">c</tspan><tspan class="d" x="7.07" y="0">onnect with your cus</tspan><tspan class="e" x="144.57" y="0">t</tspan><tspan class="d" x="149.57" y="0">ome</tspan><tspan x="179.33" y="0">r</tspan><tspan class="f" x="184.4" y="0">s</tspan></text>
  </g>
</svg>
